<?xml version="1.0" encoding="UTF-8" standalone="no"?>
<!-- Created with Inkscape (http://www.inkscape.org/) -->
<svg
   xmlns:dc="http://purl.org/dc/elements/1.1/"
   xmlns:cc="http://web.resource.org/cc/"
   xmlns:rdf="http://www.w3.org/1999/02/22-rdf-syntax-ns#"
   xmlns:svg="http://www.w3.org/2000/svg"
   xmlns="http://www.w3.org/2000/svg"
   xmlns:sodipodi="http://inkscape.sourceforge.net/DTD/sodipodi-0.dtd"
   xmlns:inkscape="http://www.inkscape.org/namespaces/inkscape"
   width="744.09448819"
   height="1052.3622047"
   id="svg2"
   sodipodi:version="0.32"
   inkscape:version="0.43"
   sodipodi:docbase="/home/ronny/Desktop"
   sodipodi:docname="terasi.svg"
   inkscape:export-filename="/home/ronny/Desktop/terasi.png"
   inkscape:export-xdpi="90"
   inkscape:export-ydpi="90">
  <defs
     id="defs4" />
  <sodipodi:namedview
     id="base"
     pagecolor="#ffffff"
     bordercolor="#666666"
     borderopacity="1.0"
     inkscape:pageopacity="0.0"
     inkscape:pageshadow="2"
     inkscape:zoom="1"
     inkscape:cx="338.31904"
     inkscape:cy="800"
     inkscape:document-units="px"
     inkscape:current-layer="layer1"
     inkscape:window-width="943"
     inkscape:window-height="767"
     inkscape:window-x="141"
     inkscape:window-y="345" />
  <metadata
     id="metadata7">
    <rdf:RDF>
      <cc:Work
         rdf:about="">
        <dc:format>image/svg+xml</dc:format>
        <dc:type
           rdf:resource="http://purl.org/dc/dcmitype/StillImage" />
      </cc:Work>
    </rdf:RDF>
  </metadata>
  <g
     inkscape:label="Layer 1"
     inkscape:groupmode="layer"
     id="layer1">
    <g
       id="g1513"
       transform="matrix(0.619644,0,0,0.596308,-279.6848,-58.33517)">
      <g
         id="g1524"
         transform="matrix(0.924002,0,0,1,501.7488,110.6811)">
        <path
           style="fill:#000000;fill-opacity:1;fill-rule:nonzero;stroke:none;stroke-width:1px;stroke-linecap:butt;stroke-linejoin:miter;stroke-opacity:1"
           id="path1449"
           d="M 32.46451,112.5658 C 29.00935,114.43539 18.95251,120.52674 22.09904,118.17456 C 44.37095,101.52528 77.393,100.60665 103.66527,97.93047 C 126.04897,97.8186 149.28654,92.04069 171.64233,95.62645 L 161.36724,102.81459 C 139.57637,99.32391 116.90461,103.71014 95.09718,104.29517 C 78.94578,106.08064 62.68315,107.84261 46.8439,111.58773 C 40.9328,112.98539 35.05043,114.71341 29.38616,116.92499 C 27.67507,117.59307 22.78885,120.13597 24.3598,119.18399 C 27.53596,117.25927 37.42647,112.16804 33.99684,113.59287 C 29.79079,115.34026 26.00825,117.97 22.01396,120.15857 L 32.46451,112.5658 z " />
        <path
           style="fill:#000000;fill-opacity:1;fill-rule:nonzero;stroke:none;stroke-width:1px;stroke-linecap:butt;stroke-linejoin:miter;stroke-opacity:1"
           id="path1451"
           d="M 33.46451,229.5658 C 51.52599,223.52871 70.59002,221.25892 89.56683,220.07358 C 113.74814,218.60859 137.83697,218.37427 161.85734,221.49119 C 163.31307,221.75455 164.78683,221.88306 166.25157,222.079 L 156.09038,229.26652 C 155.99301,229.25281 151.7572,228.70343 151.68614,228.64645 C 128.08369,225.26204 104.35959,224.88143 80.5498,226.72076 C 61.00354,228.21081 41.65405,231.06916 23.01396,237.15857 L 33.46451,229.5658 z " />
        <path
           style="fill:#000000;fill-opacity:1;fill-rule:nonzero;stroke:none;stroke-width:1px;stroke-linecap:butt;stroke-linejoin:miter;stroke-opacity:1"
           id="path1453"
           d="M 30.76762,121.54305 C 31.40873,141.98597 33.59917,162.44784 35.49597,182.79868 C 36.44536,193.09034 37.21878,203.44041 38.72982,213.62769 L 27.71032,220.85152 C 26.34487,210.47257 25.95436,199.92822 25.05721,189.47158 C 23.30073,169.18603 21.67797,148.89422 19.23238,128.72171 L 30.76762,121.54305 z " />
        <path
           style="fill:#000000;fill-opacity:1;fill-rule:nonzero;stroke:none;stroke-width:1px;stroke-linecap:butt;stroke-linejoin:miter;stroke-opacity:1"
           id="path1455"
           d="M 173.76762,104.54305 C 172.01907,129.58215 168.85892,154.49534 166.74257,179.50665 C 165.79264,193.46916 165.35331,207.46086 163.48029,221.31634 L 152.12923,227.35202 C 154.18132,213.26844 156.00954,199.14873 156.81322,184.89327 C 158.78136,160.28817 162.00364,135.62598 162.23238,110.94156 L 173.76762,104.54305 z " />
        <path
           style="fill:#000000;fill-opacity:1;fill-rule:nonzero;stroke:none;stroke-width:1px;stroke-linecap:butt;stroke-linejoin:miter;stroke-opacity:1"
           id="path1457"
           d="M 40.28029,104.2102 C 7.07857,122.48737 80.91994,78.85228 85.12802,76.32714 C 98.04245,67.77229 112.05532,61.28808 125.81716,54.3239 C 126.88672,53.78264 130.05352,52.08052 129.01643,52.68165 C 125.87194,54.5043 116.37328,59.85783 119.55642,58.10356 C 124.05617,55.62368 128.50474,53.05206 132.9789,50.52631 L 123.13503,58.43199 C 145.65304,45.08184 96.43049,73.02355 95.68725,72.25562 C 73.67287,85.35662 51.63658,98.485 30.19818,112.27493 L 40.28029,104.2102 z " />
        <path
           style="fill:#000000;fill-opacity:1;fill-rule:nonzero;stroke:none;stroke-width:1px;stroke-linecap:butt;stroke-linejoin:miter;stroke-opacity:1"
           id="path1459"
           d="M 159.86694,106.01994 C 164.27858,103.78632 174.62123,98.12021 156.18843,108.85666 C 154.5535,109.80894 159.3675,106.77851 160.9433,105.71518 C 167.27477,101.44274 173.59563,97.151477 179.93111,92.885356 C 196.88901,81.466421 213.94852,70.331853 231.65474,60.306812 C 247.61131,51.386143 264.36167,44.351199 280.76393,36.5104 L 268.93485,46.657928 C 252.74472,53.727431 236.64948,61.08154 221.03483,69.566513 C 206.66984,77.791664 172.48672,102.94577 147.01396,116.15857 L 159.86694,106.01994 z " />
        <path
           style="fill:#000000;fill-opacity:1;fill-rule:nonzero;stroke:none;stroke-width:1px;stroke-linecap:butt;stroke-linejoin:miter;stroke-opacity:1"
           id="path1461"
           d="M 152.1447,236.71746 C 180.07432,217.58116 210.14387,202.59822 239.7682,187.31489 C 257.5941,178.87278 275.92198,170.67429 295.28921,169.62714 L 284.02081,179.31962 C 265.15039,180.40906 247.20159,188.07044 229.88016,196.51834 C 223.19378,199.97237 130.03916,251.20312 165.49332,230.21754 L 152.1447,236.71746 z " />
        <path
           style="fill:#000000;fill-opacity:1;fill-rule:nonzero;stroke:none;stroke-width:1px;stroke-linecap:butt;stroke-linejoin:miter;stroke-opacity:1"
           id="path1465"
           d="M 140.3565,51.55736 C 149.49326,50.09163 158.77592,48.52226 167.99625,47.25334 C 184.91292,46.08777 201.6726,43.51779 218.4693,41.3029 C 226.63325,40.882994 234.76518,40.286803 242.92001,39.718416 C 248.59579,39.594271 254.27349,39.627439 259.95032,39.620973 C 259.95194,39.620704 261.9709,39.619935 261.97846,39.619931 L 251.67715,47.10389 C 251.61762,47.10382 249.70756,47.10227 249.653,47.10162 C 244.00497,47.08754 238.35254,46.99897 232.7079,47.22065 C 224.63599,47.83897 216.56685,48.12205 208.49715,48.73471 C 191.81518,50.84564 175.14078,52.98316 158.38548,54.44229 C 148.85191,55.79933 139.38806,57.7928 129.88273,59.167 L 140.3565,51.55736 z " />
        <path
           style="fill:#000000;fill-opacity:1;fill-rule:nonzero;stroke:none;stroke-width:1px;stroke-linecap:butt;stroke-linejoin:miter;stroke-opacity:1"
           id="path1467"
           d="M 275.75483,48.66919 C 277.69561,70.75711 280.47082,92.52556 279.91254,114.78732 C 277.67622,138.15752 275.81628,161.7831 271.62546,184.91438 L 260.39763,190.2721 C 266.24458,167.35339 267.62001,143.30992 269.9018,119.85952 C 270.34733,97.82613 268.12864,76.19918 264.24517,54.53365 L 275.75483,48.66919 z " />
      </g>
    </g>
    <g
       id="g1545"
       transform="translate(157,3.518173)">
      <text
         sodipodi:linespacing="100%"
         id="text1477"
         y="95.362183"
         x="65"
         style="font-size:72px;font-style:normal;font-variant:normal;font-weight:bold;font-stretch:normal;text-align:start;line-height:100%;writing-mode:lr-tb;text-anchor:start;fill:#000000;fill-opacity:1;stroke:none;stroke-width:1px;stroke-linecap:butt;stroke-linejoin:miter;stroke-opacity:1;font-family:Myriad Pro Cond"
         xml:space="preserve"><tspan
           y="95.362183"
           x="65"
           id="tspan1479"
           sodipodi:role="line">Planet Terasi</tspan></text>
      <text
         sodipodi:linespacing="100%"
         id="text1509"
         y="124.36218"
         x="67.856003"
         style="font-size:24px;font-style:normal;font-variant:normal;font-weight:normal;font-stretch:normal;text-align:start;line-height:100%;writing-mode:lr-tb;text-anchor:start;fill:#000000;fill-opacity:1;stroke:none;stroke-width:1px;stroke-linecap:butt;stroke-linejoin:miter;stroke-opacity:1;font-family:Myriad Pro Cond"
         xml:space="preserve"><tspan
           y="124.36218"
           x="67.856003"
           id="tspan1511"
           sodipodi:role="line">Think.  Read.  Write.</tspan></text>
    </g>
  </g>
</svg>
